PathFileType	4	(X/Y/Z) shrug_2kg_1.trc																										
DataRate	CameraRate	NumFrames	NumMarkers	Units	OrigDataRate	OrigDataStartFrame	OrigNumFrames																					
100	100	19	9	mm	100	62	433																					
Frame#	Time	gu			centelbow			EpL			centpxt8			centijc7			ij			ts			aa			ai		
		X1	Y1	Z1	X2	Y2	Z2	X3	Y3	Z3	X4	Y4	Z4	X5	Y5	Z5	X6	Y6	Z6	X7	Y7	Z7	X8	Y8	Z8	X9	Y9	Z9
61	0.61	-77.831	-19.707	167.448	-125.286	-261.405	185.184	-108.421	-258.63	212.521	-46.816	-153.158	-8.669	-46.816	31.938	-8.669	0	0	0	-135.033	27.87	54.256	-103.991	17.786	168.97	-158.335	-83.21	56.215
62	0.62	-77.864	-19.578	167.563	-125.308	-261.276	185.32	-108.448	-258.497	212.66	-46.816	-153.158	-8.669	-46.816	31.938	-8.669	0	0	0	-135.008	27.955	54.33	-104.003	17.868	169.055	-158.318	-83.124	56.282
63	0.63	-77.869	-19.401	167.542	-125.269	-261.106	185.321	-108.406	-258.322	212.658	-46.816	-153.158	-8.669	-46.816	31.938	-8.669	0	0	0	-135.02	28.038	54.427	-104.067	17.952	169.166	-158.33	-83.041	56.369
64	0.64	-77.828	-19.271	167.321	-125.169	-260.987	185.11	-108.296	-258.201	212.441	-46.816	-153.158	-8.669	-46.816	31.938	-8.669	0	0	0	-135.069	28.095	54.468	-104.157	18.009	169.217	-158.372	-82.985	56.399
65	0.65	-77.765	-19.22	167.042	-125.062	-260.944	184.839	-108.179	-258.156	212.164	-46.816	-153.158	-8.669	-46.816	31.938	-8.669	0	0	0	-135.121	28.098	54.488	-104.221	18.007	169.241	-158.425	-82.983	56.413
66	0.66	-77.642	-19.264	166.898	-124.942	-260.987	184.702	-108.058	-258.198	212.026	-46.816	-153.158	-8.669	-46.816	31.938	-8.669	0	0	0	-135.109	28.099	54.533	-104.2	18.003	169.282	-158.424	-82.98	56.458
67	0.67	-77.469	-19.411	166.868	-124.823	-261.123	184.671	-107.941	-258.338	211.997	-46.816	-153.158	-8.669	-46.816	31.938	-8.669	0	0	0	-135.04	28.174	54.538	-104.118	18.076	169.284	-158.358	-82.903	56.464
68	0.68	-77.462	-19.532	166.906	-124.867	-261.235	184.698	-107.988	-258.454	212.025	-46.816	-153.158	-8.669	-46.816	31.938	-8.669	0	0	0	-134.988	28.275	54.498	-104.069	18.177	169.245	-158.295	-82.805	56.421
69	0.69	-77.773	-19.47	167.075	-125.166	-261.176	184.86	-108.29	-258.395	212.189	-46.816	-153.158	-8.669	-46.816	31.938	-8.669	0	0	0	-134.992	28.292	54.489	-104.084	18.192	169.239	-158.29	-82.79	56.405
70	0.7	-78.106	-19.315	167.235	-125.449	-261.03	185.029	-108.575	-258.244	212.359	-46.816	-153.158	-8.669	-46.816	31.938	-8.669	0	0	0	-135.055	28.212	54.491	-104.147	18.109	169.241	-158.368	-82.867	56.408
71	0.71	-78.057	-19.283	167.146	-125.383	-261.001	184.95	-108.504	-258.213	212.277	-46.816	-153.158	-8.669	-46.816	31.938	-8.669	0	0	0	-135.146	28.09	54.477	-104.225	17.982	169.222	-158.496	-82.98	56.403
72	0.72	-77.688	-19.39	166.926	-125.037	-261.105	184.711	-108.151	-258.323	212.034	-46.816	-153.158	-8.669	-46.816	31.938	-8.669	0	0	0	-135.206	27.976	54.524	-104.289	17.863	169.27	-158.591	-83.087	56.453
73	0.73	-77.337	-19.477	166.845	-124.696	-261.192	184.599	-107.81	-258.414	211.922	-46.816	-153.158	-8.669	-46.816	31.938	-8.669	0	0	0	-135.257	27.938	54.646	-104.368	17.819	169.399	-158.648	-83.124	56.565
74	0.74	-77.13	-19.429	166.885	-124.441	-261.154	184.641	-107.556	-258.372	211.964	-46.816	-153.158	-8.669	-46.816	31.938	-8.669	0	0	0	-135.336	28.019	54.699	-104.462	17.898	169.456	-158.705	-83.048	56.607
75	0.75	-76.998	-19.277	166.892	-124.226	-261.015	184.682	-107.336	-258.225	212.002	-46.816	-153.158	-8.669	-46.816	31.938	-8.669	0	0	0	-135.377	28.156	54.608	-104.484	18.041	169.36	-158.718	-82.917	56.518
76	0.76	-76.953	-19.152	166.884	-124.131	-260.898	184.707	-107.238	-258.101	212.025	-46.816	-153.158	-8.669	-46.816	31.938	-8.669	0	0	0	-135.353	28.238	54.473	-104.429	18.134	169.218	-158.681	-82.838	56.397
77	0.77	-77.071	-19.173	166.96	-124.269	-260.914	184.795	-107.382	-258.116	212.116	-46.816	-153.158	-8.669	-46.816	31.938	-8.669	0	0	0	-135.371	28.245	54.395	-104.431	18.155	169.137	-158.699	-82.83	56.335
78	0.78	-77.309	-19.309	167.065	-124.559	-261.04	184.886	-107.684	-258.245	212.214	-46.816	-153.158	-8.669	-46.816	31.938	-8.669	0	0	0	-135.486	28.231	54.402	-104.545	18.149	169.144	-158.813	-82.845	56.35
79	0.79	-77.507	-19.447	167.085	-124.783	-261.176	184.876	-107.914	-258.384	212.208	-46.816	-153.158	-8.669	-46.816	31.938	-8.669	0	0	0	-135.593	28.176	54.476	-104.658	18.091	169.22	-158.926	-82.898	56.422
